# xmcd
#
# Track frame offsets:
#	150
#	19625
#	40125
#	59675
#	79522
#	100485
#	120450
#	139425
#	157350
#	180997
#	198322
#	217597
#	236832
#	257662
#	278817
#
# Disc length: 3947 seconds
#
# Revision: 1
# Processed by: cddbd v1.5.2PL0 Copyright (c) Steve Scherf et al.
# Submitted via: EasyCDDAExtractor 15.3.0.1
#
DISCID=d20f690f
DTITLE=Millie - 30 Exitos Insuperables - CD 2
DYEAR=2003
DGENRE=Latin
TTITLE0=Con Los Brazos Abiertos
TTITLE1=Una Carta Cualquiera
TTITLE2=Amame
TTITLE3=Estaremos Juntos
TTITLE4=Llorando Por Ti
TTITLE5=Perverso Amor
TTITLE6=Yo Sin Ti (Quelli Come Noi)
TTITLE7=Presentimiento
TTITLE8=Yo Te Amare
TTITLE9=De Seda Pura
TTITLE10=Sin Ti
TTITLE11=En Silencio
TTITLE12=Regresa
TTITLE13=Llora Por El
TTITLE14=Fiebre
EXTD=
EXTT0=
EXTT1=
EXTT2=
EXTT3=
EXTT4=
EXTT5=
EXTT6=
EXTT7=
EXTT8=
EXTT9=
EXTT10=
EXTT11=
EXTT12=
EXTT13=
EXTT14=
PLAYORDER=
